<mxfile host="app.diagrams.net" modified="2022-08-03T20:45:39.403Z" agent="5.0 (Macintosh; Intel Mac OS X 10_15_7) AppleWebKit/537.36 (KHTML, like Gecko) Chrome/100.0.4896.75 Safari/537.36" etag="OqkXSyMxVrP1ScYjaYYL" version="20.2.2" type="github">
  <diagram id="HsSSpAIMPU6miMTCkn_X" name="Page-1">
    <mxGraphModel dx="1388" dy="808" grid="1" gridSize="10" guides="1" tooltips="1" connect="1" arrows="1" fold="1" page="1" pageScale="1" pageWidth="850" pageHeight="1100" math="0" shadow="0">
      <root>
        <mxCell id="0" />
        <mxCell id="1" parent="0" />
        <mxCell id="iGsSyt_LQ1O5PGhA33Kj-2" value="&lt;font color=&quot;#1a1a1a&quot; style=&quot;font-size: 17px;&quot;&gt;OAuth 2.0 Flow&lt;/font&gt;" style="text;html=1;align=center;verticalAlign=middle;resizable=0;points=[];autosize=1;strokeColor=none;fillColor=none;" parent="1" vertex="1">
          <mxGeometry x="340" y="80" width="140" height="30" as="geometry" />
        </mxCell>
        <mxCell id="iGsSyt_LQ1O5PGhA33Kj-4" value="Paypal Authorization&lt;br&gt;Server" style="whiteSpace=wrap;html=1;fontSize=17;fontColor=#1A1A1A;dashed=1;" parent="1" vertex="1">
          <mxGeometry x="490" y="450" width="120" height="60" as="geometry" />
        </mxCell>
        <mxCell id="iGsSyt_LQ1O5PGhA33Kj-10" style="edgeStyle=orthogonalEdgeStyle;rounded=0;orthogonalLoop=1;jettySize=auto;html=1;fontSize=17;fontColor=#1A1A1A;" parent="1" source="iGsSyt_LQ1O5PGhA33Kj-6" edge="1">
          <mxGeometry relative="1" as="geometry">
            <mxPoint x="221" y="160" as="targetPoint" />
            <Array as="points">
              <mxPoint x="200" y="160" />
              <mxPoint x="200" y="160" />
            </Array>
          </mxGeometry>
        </mxCell>
        <mxCell id="iGsSyt_LQ1O5PGhA33Kj-6" value="" style="shape=actor;whiteSpace=wrap;html=1;fontSize=17;fontColor=#1A1A1A;" parent="1" vertex="1">
          <mxGeometry x="70" y="130" width="40" height="60" as="geometry" />
        </mxCell>
        <mxCell id="iGsSyt_LQ1O5PGhA33Kj-23" style="edgeStyle=orthogonalEdgeStyle;rounded=0;orthogonalLoop=1;jettySize=auto;html=1;fontSize=14;fontColor=#1A1A1A;" parent="1" target="iGsSyt_LQ1O5PGhA33Kj-22" edge="1">
          <mxGeometry relative="1" as="geometry">
            <mxPoint x="320" y="165" as="sourcePoint" />
          </mxGeometry>
        </mxCell>
        <mxCell id="iGsSyt_LQ1O5PGhA33Kj-22" value="VietZilla App" style="rounded=0;whiteSpace=wrap;html=1;fontSize=17;fillColor=#dae8fc;strokeColor=#6c8ebf;" parent="1" vertex="1">
          <mxGeometry x="480" y="135" width="120" height="60" as="geometry" />
        </mxCell>
        <mxCell id="iGsSyt_LQ1O5PGhA33Kj-25" value="&lt;span style=&quot;&quot;&gt;vietIlla.com/app&lt;/span&gt;" style="text;html=1;align=center;verticalAlign=middle;resizable=0;points=[];autosize=1;strokeColor=none;fillColor=none;fontSize=14;fontColor=#1A1A1A;" parent="1" vertex="1">
          <mxGeometry x="340" y="135" width="120" height="30" as="geometry" />
        </mxCell>
        <mxCell id="iGsSyt_LQ1O5PGhA33Kj-29" value="" style="rounded=1;whiteSpace=wrap;html=1;fontSize=14;fontColor=#1A1A1A;fillColor=none;gradientColor=#ffffff;glass=0;" parent="1" vertex="1">
          <mxGeometry x="380" y="405" width="470" height="160" as="geometry" />
        </mxCell>
        <mxCell id="vmqhQKorAQydmtORhxEq-2" value="" style="aspect=fixed;perimeter=ellipsePerimeter;html=1;align=center;shadow=0;dashed=0;spacingTop=3;image;image=img/lib/active_directory/database.svg;rounded=1;glass=0;fillColor=none;" vertex="1" parent="1">
          <mxGeometry x="605" y="73" width="50" height="37" as="geometry" />
        </mxCell>
        <mxCell id="vmqhQKorAQydmtORhxEq-3" value="" style="shape=datastore;whiteSpace=wrap;html=1;rounded=1;glass=0;fillColor=none;" vertex="1" parent="1">
          <mxGeometry x="395" y="455" width="60" height="60" as="geometry" />
        </mxCell>
        <mxCell id="vmqhQKorAQydmtORhxEq-5" value="" style="outlineConnect=0;dashed=0;verticalLabelPosition=bottom;verticalAlign=top;align=center;html=1;shape=mxgraph.aws3.management_console;fillColor=#D2D3D3;gradientColor=none;rounded=1;glass=0;" vertex="1" parent="1">
          <mxGeometry x="220" y="135" width="90" height="65" as="geometry" />
        </mxCell>
        <mxCell id="vmqhQKorAQydmtORhxEq-16" value="Provides ClientId &amp;amp;&lt;br&gt;Client Secret" style="shape=note;whiteSpace=wrap;html=1;backgroundOutline=1;darkOpacity=0.05;rounded=1;glass=0;fillColor=none;size=30;" vertex="1" parent="1">
          <mxGeometry x="550" y="360" width="80" height="75" as="geometry" />
        </mxCell>
        <mxCell id="vmqhQKorAQydmtORhxEq-33" style="edgeStyle=orthogonalEdgeStyle;rounded=0;orthogonalLoop=1;jettySize=auto;html=1;entryX=1;entryY=0.5;entryDx=0;entryDy=0;strokeColor=#FF6E30;" edge="1" parent="1" source="vmqhQKorAQydmtORhxEq-17" target="iGsSyt_LQ1O5PGhA33Kj-4">
          <mxGeometry relative="1" as="geometry" />
        </mxCell>
        <mxCell id="vmqhQKorAQydmtORhxEq-17" value="Paypal Resource&lt;br&gt;Server" style="whiteSpace=wrap;html=1;fontSize=17;fontColor=#1A1A1A;" vertex="1" parent="1">
          <mxGeometry x="700" y="450" width="120" height="60" as="geometry" />
        </mxCell>
        <mxCell id="vmqhQKorAQydmtORhxEq-21" value="" style="endArrow=classic;html=1;rounded=0;strokeColor=#FF6E30;entryX=0.5;entryY=0;entryDx=0;entryDy=0;" edge="1" parent="1" target="iGsSyt_LQ1O5PGhA33Kj-4">
          <mxGeometry width="50" height="50" relative="1" as="geometry">
            <mxPoint x="550" y="200" as="sourcePoint" />
            <mxPoint x="400" y="350" as="targetPoint" />
          </mxGeometry>
        </mxCell>
        <mxCell id="vmqhQKorAQydmtORhxEq-22" value="request access token&lt;br&gt;" style="text;html=1;align=center;verticalAlign=middle;resizable=0;points=[];autosize=1;strokeColor=none;fillColor=none;rotation=90;" vertex="1" parent="1">
          <mxGeometry x="500" y="280" width="140" height="30" as="geometry" />
        </mxCell>
        <mxCell id="vmqhQKorAQydmtORhxEq-24" value="" style="endArrow=classic;html=1;rounded=0;strokeColor=#FF6E30;" edge="1" parent="1">
          <mxGeometry width="50" height="50" relative="1" as="geometry">
            <mxPoint x="520" y="450" as="sourcePoint" />
            <mxPoint x="520" y="200" as="targetPoint" />
            <Array as="points">
              <mxPoint x="520" y="450" />
            </Array>
          </mxGeometry>
        </mxCell>
        <mxCell id="vmqhQKorAQydmtORhxEq-25" value="returns access token&lt;br&gt;" style="text;html=1;align=center;verticalAlign=middle;resizable=0;points=[];autosize=1;strokeColor=none;fillColor=none;rotation=-90;" vertex="1" parent="1">
          <mxGeometry x="440" y="280" width="130" height="30" as="geometry" />
        </mxCell>
        <mxCell id="vmqhQKorAQydmtORhxEq-26" value="" style="endArrow=classic;html=1;rounded=0;strokeColor=#FF6E30;exitX=1;exitY=0.5;exitDx=0;exitDy=0;entryX=0.5;entryY=0;entryDx=0;entryDy=0;" edge="1" parent="1" source="iGsSyt_LQ1O5PGhA33Kj-22" target="vmqhQKorAQydmtORhxEq-17">
          <mxGeometry width="50" height="50" relative="1" as="geometry">
            <mxPoint x="760" y="440" as="sourcePoint" />
            <mxPoint x="740" y="165" as="targetPoint" />
            <Array as="points">
              <mxPoint x="760" y="165" />
            </Array>
          </mxGeometry>
        </mxCell>
        <mxCell id="vmqhQKorAQydmtORhxEq-27" value="HTTP Header&lt;br&gt;with Token" style="shape=note;whiteSpace=wrap;html=1;backgroundOutline=1;darkOpacity=0.05;rounded=1;glass=0;fillColor=none;size=30;" vertex="1" parent="1">
          <mxGeometry x="760" y="300" width="80" height="75" as="geometry" />
        </mxCell>
        <mxCell id="vmqhQKorAQydmtORhxEq-28" value="request resource API&lt;br&gt;" style="text;html=1;align=center;verticalAlign=middle;resizable=0;points=[];autosize=1;strokeColor=none;fillColor=none;rotation=90;" vertex="1" parent="1">
          <mxGeometry x="670" y="290" width="140" height="30" as="geometry" />
        </mxCell>
        <mxCell id="vmqhQKorAQydmtORhxEq-31" value="1" style="ellipse;whiteSpace=wrap;html=1;aspect=fixed;rounded=1;glass=0;dashed=1;fillColor=none;" vertex="1" parent="1">
          <mxGeometry x="550" y="195" width="35" height="35" as="geometry" />
        </mxCell>
        <mxCell id="vmqhQKorAQydmtORhxEq-32" value="2" style="ellipse;whiteSpace=wrap;html=1;aspect=fixed;rounded=1;glass=0;dashed=1;fillColor=none;" vertex="1" parent="1">
          <mxGeometry x="480" y="370" width="35" height="35" as="geometry" />
        </mxCell>
        <mxCell id="vmqhQKorAQydmtORhxEq-34" value="verify token" style="text;html=1;align=center;verticalAlign=middle;resizable=0;points=[];autosize=1;strokeColor=none;fillColor=none;" vertex="1" parent="1">
          <mxGeometry x="610" y="450" width="80" height="30" as="geometry" />
        </mxCell>
      </root>
    </mxGraphModel>
  </diagram>
</mxfile>
